<svg width="447" height="447" viewBox="0 0 447 447" fill="none" xmlns="http://www.w3.org/2000/svg">
<path d="M324.363 0.84375C272.366 0.84375 117.568 51.7133 80.2133 64.1598C30.6352 79.3227 0.84375 126.489 0.84375 187.036V299.663L200.002 338.799V437.688L262.272 446.156L307.137 403.837V311.702L446.156 229.356V119.349C446.156 44.566 400.853 0.84375 324.363 0.84375ZM245.595 192.135L231.145 181.589L240.414 162.232C243.079 171.918 244.823 181.938 245.595 192.135ZM61.718 121.197L212.56 107.607C222.298 119.696 230.08 133.237 235.62 147.738L219.693 181.01L219.685 181.032L219.648 181.121L204.032 215.759L166.285 192.603L57.7547 122.429C58.8383 121.813 60.1445 121.353 61.718 121.197ZM47.1043 294.557L81.8387 279.283L87.7984 300.146C88.0582 301.066 88.4738 301.882 88.8078 302.758L47.1043 294.557ZM98.0035 297.318L52.8043 139.173C52.0479 136.623 51.8355 133.943 52.1809 131.305L156.51 198.763L138.816 233.119L101.907 304.784C100.102 302.594 98.7724 300.051 98.0035 297.318ZM111.014 310.202L145.006 244.192L165.491 204.426L203.609 227.79C204.182 228.129 204.815 228.355 205.472 228.458L205.984 228.532C206.133 228.539 206.266 228.584 206.415 228.584C207.434 228.584 208.431 228.292 209.289 227.742C210.147 227.192 210.829 226.408 211.254 225.482L226.654 191.311L237.067 198.911L246.07 205.487V262.383L116.098 309.668C114.473 310.261 112.727 310.444 111.014 310.202ZM138.698 312.562L231.939 278.645V330.88L138.698 312.562ZM248.126 430.192L214.141 425.568V341.567L246.07 347.846V347.861L248.126 346.644V430.192ZM355.869 79.5453L276.21 109.27L276.27 239.257L256.965 248.623V45.516L355.921 12.0434L355.869 79.5453Z" fill="#222629"/>
</svg>
